<svg xmlns="http://www.w3.org/2000/svg" viewBox="0 0 208.24 208.24"><defs><style>.cls-1{fill:#e92227;}.cls-2{fill:#f8c22b;}.cls-3{fill:#2a378b;}</style></defs><g id="Layer_2" data-name="Layer 2"><g id="Layer_1-2" data-name="Layer 1"><rect class="cls-1" x="30.5" y="30.5" width="147.25" height="147.25" transform="translate(-43.13 104.12) rotate(-45)"></rect><circle class="cls-2" cx="104.12" cy="104.12" r="63.41" transform="translate(-12.2 194.41) rotate(-82.82)"></circle><path class="cls-3" d="M83.43,91.31,75.3,94c-1.1-3.23-3.41-4.84-7-4.84q-5.67,0-5.67,3.68a3.34,3.34,0,0,0,1.06,2.48c.71.68,2.31,1.26,4.79,1.76a47.26,47.26,0,0,1,9.14,2.55,11.57,11.57,0,0,1,4.88,4.14,10.94,10.94,0,0,1,2,6.38,12.74,12.74,0,0,1-4.26,9.56q-4.26,4-12.62,4A19.18,19.18,0,0,1,57,120.92a13.57,13.57,0,0,1-5.81-8.47l8.85-2q1.5,5.72,8.3,5.71a7.83,7.83,0,0,0,4.89-1.27,3.75,3.75,0,0,0,1.61-3,3.17,3.17,0,0,0-1.46-2.78,17.47,17.47,0,0,0-5.65-1.85q-7.78-1.62-11.1-4.42T53.3,94.63a12.12,12.12,0,0,1,4-9.18q4-3.74,10.74-3.73Q80,81.72,83.43,91.31Z"></path><path class="cls-3" d="M119.81,90.42h-19.1v9.14h15.1v7.63h-15.1v16H90.78V82.34h29Z"></path><path class="cls-3" d="M157.63,97.53l-10,.63q-.21-8.64-6.74-8.64-7.49,0-7.49,13.3,0,7.68,2,10.42a6.71,6.71,0,0,0,5.69,2.74q5.94,0,7.25-7.72l9.27.57q-.9,7.32-5.46,11.14a18.28,18.28,0,0,1-24.33-1.78q-5.07-5.59-5.07-15.46,0-9.24,4.9-15.13t13.4-5.88Q155.77,81.72,157.63,97.53Z"></path></g></g></svg>